<svg xmlns="http://www.w3.org/2000/svg" viewBox="0 0 32 32"><title>Mall</title><g id="Mall_Shop" data-name="Mall/Shop"><path d="M10,20H23.438a3,3,0,0,0,2.911-2.272L28.66,8.484A2,2,0,0,0,26.719,6h-19L7.4,5.051A3,3,0,0,0,4.559,3H3A1,1,0,0,0,3,5H4.559a1,1,0,0,1,.949.684L9.62,18.024a2.993,2.993,0,0,0-.651,5.782A3,3,0,1,0,13.22,24h7.56a3,3,0,1,0,4.44,0H25.7a1,1,0,0,0,0-2H10a1,1,0,0,1,0-2Zm9.153-2H16.847l-.333-2h2.972Zm.667-4H16.18l-.333-2h4.306Zm3.027-6H26.72l-.5,2H22.514Zm-.667,4h3.54l-.5,2H21.847Zm-.666,4H24.72l-.311,1.242a1,1,0,0,1-.971.758H21.18ZM20.82,8l-.334,2H15.514L15.18,8Zm-6,10h-3.1l-.666-2h3.432Zm-.667-4H10.387L9.72,12h4.1Zm-1-6,.333,2H9.054L8.387,8ZM23,27a1,1,0,1,1,1-1A1,1,0,0,1,23,27ZM11,27a1,1,0,1,1,1-1A1,1,0,0,1,11,27Z" id="id_101" style="fill: rgb(22, 196, 2);"></path></g></svg>