<?xml version="1.0" encoding="UTF-8" standalone="no"?> <svg id="Layer_1" data-name="Layer 1" xmlns="http://www.w3.org/2000/svg" viewBox="0 0 512 512"><title>Delivery Truck</title><path d="M507.219,275.177,466.234,185.01A42.749,42.749,0,0,0,427.4,160H352V128a32.035,32.035,0,0,0-32-32H53.333a32.035,32.035,0,0,0-32,32V256a10.667,10.667,0,1,0,21.333,0V128a10.679,10.679,0,0,1,10.667-10.667H320A10.679,10.679,0,0,1,330.667,128V298.667A10.681,10.681,0,0,1,320,309.333H192a10.667,10.667,0,0,0,0,21.333H320a32.035,32.035,0,0,0,32-32V181.333h75.4a21.381,21.381,0,0,1,19.422,12.505l4.013,8.828h-45.5A21.356,21.356,0,0,0,384,224v42.667A21.354,21.354,0,0,0,405.333,288h83.94a31.775,31.775,0,0,1,1.393,9.24v44.094A10.681,10.681,0,0,1,480,352H446.924a53.336,53.336,0,0,0-104.516,0H169.591a53.336,53.336,0,0,0-104.516,0H53.333a10.681,10.681,0,0,1-10.667-10.667V330.667a10.667,10.667,0,0,0,0-21.333h-32a10.667,10.667,0,0,0,0,21.333H21.333v10.667a32.035,32.035,0,0,0,32,32H65.076a53.336,53.336,0,0,0,104.516,0H342.409a53.336,53.336,0,0,0,104.516,0H480a32.035,32.035,0,0,0,32-32V297.24A52.9,52.9,0,0,0,507.219,275.177ZM117.333,394.667a32,32,0,1,1,32-32A32.035,32.035,0,0,1,117.333,394.667Zm277.333,0a32,32,0,1,1,32-32A32.035,32.035,0,0,1,394.667,394.667ZM405.333,224h55.194l19.393,42.667H405.333Z"/><path d="M10.667,298.667H64a10.667,10.667,0,0,0,0-21.333H10.667a10.667,10.667,0,0,0,0,21.333Z"/></svg>